<svg id="Layer_1" data-name="Layer 1" xmlns="http://www.w3.org/2000/svg" xmlns:xlink="http://www.w3.org/1999/xlink" viewBox="0 0 400.23 362.67"><defs><style>.cls-1{fill:url(#linear-gradient);}.cls-2{fill:#231f20;}</style><linearGradient id="linear-gradient" x1="201.98" y1="347.54" x2="201.98" y2="206.22" gradientUnits="userSpaceOnUse"><stop offset="0" stop-color="#f7941d"/><stop offset="1" stop-color="#f5d735"/></linearGradient></defs><rect class="cls-1" x="33.39" y="206.22" width="337.19" height="141.32"/><path class="cls-2" d="M9.55,0A9.54,9.54,0,0,0,0,9.93C2.38,68.16,14.89,362.67,25.09,362.67H366.55a9.54,9.54,0,0,0,9.51-8.73C380.79,298.7,406,0,399,0h-9.53A9.55,9.55,0,0,0,380,8.82l-24.72,323.1a9.55,9.55,0,0,1-9.52,8.82H56.45a9.55,9.55,0,0,1-9.52-8.82L22.21,8.82A9.55,9.55,0,0,0,12.69,0Z"/></svg>